<?xml version="1.0" encoding="UTF-8"?>
<svg width="102px" height="25px" viewBox="0 0 102 25" version="1.1" xmlns="http://www.w3.org/2000/svg" xmlns:xlink="http://www.w3.org/1999/xlink">
    <title>745FECF6-B4DA-458E-A3B6-67D3F2D180AE@1,5x</title>
    <defs>
        <polygon id="path-1" points="0 0.20525 20.8009955 0.20525 20.8009955 24.74985 0 24.74985"></polygon>
        <polygon id="path-3" points="0 0.20525 18.8552763 0.20525 18.8552763 22.0266 0 22.0266"></polygon>
        <polygon id="path-5" points="0 0.20525 18.8552599 0.20525 18.8552599 22.0266 0 22.0266"></polygon>
    </defs>
    <g id="Page-2" stroke="none" stroke-width="1" fill="none" fill-rule="evenodd">
        <g id="4" transform="translate(-176.000000, -298.000000)">
            <g id="Group-3" transform="translate(39.000000, 165.000000)">
                <g id="Group-4-Copy" transform="translate(117.000000, 104.000000)">
                    <g id="paypal-Logo" transform="translate(20.000000, 29.000000)">
                        <path d="M78.548875,10.948125 C78.244875,12.944875 76.720125,12.944875 75.244875,12.944875 L74.405875,12.944875 L74.994375,9.216875 C75.030125,8.991625 75.224375,8.825625 75.452375,8.825625 L75.837125,8.825625 C76.841125,8.825625 77.789625,8.825625 78.278375,9.397625 C78.571125,9.739875 78.659375,10.247125 78.548875,10.948125 M77.907125,5.738875 L72.344375,5.738875 C71.964125,5.738875 71.640125,6.015625 71.581125,6.391125 L69.331625,20.654375 C69.287125,20.935875 69.504625,21.190625 69.789625,21.190625 L72.643875,21.190625 C72.909875,21.190625 73.136875,20.996625 73.178125,20.733875 L73.815875,16.690125 C73.875375,16.314375 74.199125,16.037375 74.579375,16.037375 L76.339375,16.037375 C80.003375,16.037375 82.117875,14.264625 82.670625,10.750125 C82.919375,9.213125 82.680625,8.005375 81.960875,7.159875 C81.169875,6.230375 79.767875,5.738875 77.907125,5.738875" id="Fill-1" fill="#FFFFFF"></path>
                        <path d="M38.8748,10.948125 C38.5708,12.944875 37.0458,12.944875 35.57105,12.944875 L34.7318,12.944875 L35.3203,9.216875 C35.35605,8.991625 35.5503,8.825625 35.7783,8.825625 L36.16305,8.825625 C37.16705,8.825625 38.11555,8.825625 38.6043,9.397625 C38.8968,9.739875 38.9853,10.247125 38.8748,10.948125 M38.23305,5.738875 L32.6703,5.738875 C32.29005,5.738875 31.9663,6.015625 31.9068,6.391125 L29.65755,20.654375 C29.6133,20.935875 29.8308,21.190625 30.11555,21.190625 L32.77155,21.190625 C33.1518,21.190625 33.47555,20.913625 33.53505,20.537875 L34.1418,16.690125 C34.20105,16.314375 34.52505,16.037375 34.9053,16.037375 L36.66555,16.037375 C40.3293,16.037375 42.44405,14.264625 42.99655,10.750125 C43.2453,9.213125 43.00655,8.005375 42.28705,7.159875 C41.4958,6.230375 40.0938,5.738875 38.23305,5.738875" id="Fill-3" fill="#FFFFFF"></path>
                        <path d="M51.146775,16.068725 C50.889525,17.590725 49.681275,18.612225 48.140275,18.612225 C47.367775,18.612225 46.749275,18.363725 46.351775,17.893475 C45.957775,17.426975 45.809275,16.762225 45.934275,16.022225 C46.174275,14.513975 47.401775,13.459225 48.919275,13.459225 C49.675775,13.459225 50.289775,13.710225 50.695025,14.185225 C51.103025,14.663475 51.263525,15.332475 51.146775,16.068725 M54.858775,10.884225 L52.195275,10.884225 C51.967025,10.884225 51.772775,11.050225 51.737025,11.275725 L51.620275,12.020475 L51.433775,11.750725 C50.857025,10.913225 49.571525,10.633725 48.287525,10.633725 C45.345025,10.633725 42.831275,12.863725 42.342025,15.991225 C42.087275,17.551725 42.448775,19.042725 43.333525,20.083475 C44.146525,21.039725 45.306275,21.437725 46.688275,21.437725 C49.060025,21.437725 50.375775,19.913975 50.375775,19.913975 L50.256775,20.654225 C50.212275,20.935725 50.429775,21.190475 50.714775,21.190475 L53.113525,21.190475 C53.493775,21.190475 53.817525,20.913975 53.876775,20.538225 L55.316775,11.419975 C55.361025,11.138725 55.143525,10.884225 54.858775,10.884225" id="Fill-5" fill="#FFFFFF"></path>
                        <path d="M90.82085,16.068725 C90.5636,17.590725 89.3556,18.612225 87.8146,18.612225 C87.04185,18.612225 86.42335,18.363725 86.0256,17.893475 C85.63185,17.426975 85.48335,16.762225 85.60835,16.022225 C85.84835,14.513975 87.07585,13.459225 88.59335,13.459225 C89.3496,13.459225 89.96385,13.710225 90.3691,14.185225 C90.7771,14.663475 90.9376,15.332475 90.82085,16.068725 M94.53285,10.884225 L91.86935,10.884225 C91.6411,10.884225 91.44685,11.050225 91.4111,11.275725 L91.29435,12.020475 L91.10785,11.750725 C90.5311,10.913225 89.24535,10.633725 87.9616,10.633725 C85.0191,10.633725 82.50535,12.863725 82.0161,15.991225 C81.7616,17.551725 82.12285,19.042725 83.0076,20.083475 C83.82035,21.039725 84.98035,21.437725 86.36235,21.437725 C88.7341,21.437725 90.04985,19.913975 90.04985,19.913975 L89.93085,20.654225 C89.88635,20.935725 90.10385,21.190475 90.38885,21.190475 L92.7876,21.190475 C93.16785,21.190475 93.4916,20.913975 93.55085,20.538225 L94.99085,11.419975 C95.0351,11.138725 94.8176,10.884225 94.53285,10.884225" id="Fill-7" fill="#FFFFFF"></path>
                        <path d="M69.0452,10.884275 L66.36795,10.884275 C66.11195,10.884275 65.87245,11.011275 65.72845,11.223025 L62.03545,16.662275 L60.4702,11.435775 C60.37245,11.108525 60.0712,10.884275 59.72995,10.884275 L57.0982,10.884275 C56.7802,10.884275 56.55695,11.196775 56.6592,11.497775 L59.6072,20.150775 L56.83445,24.063025 C56.6167,24.370275 56.83645,24.794775 57.21295,24.794775 L59.88745,24.794775 C60.14095,24.794775 60.3782,24.670525 60.5227,24.462275 L69.4262,11.612275 C69.6392,11.304775 69.4192,10.884275 69.0452,10.884275" id="Fill-9" fill="#FFFFFF"></path>
                        <path d="M97.6724,6.1305 L95.38915,20.65475 C95.3449,20.93625 95.56265,21.1905 95.84715,21.1905 L98.1434,21.1905 C98.52365,21.1905 98.8474,20.91375 98.90665,20.53825 L101.15765,6.275 C101.20215,5.9935 100.98465,5.739 100.69965,5.739 L98.1304,5.739 C97.90215,5.739 97.7079,5.905 97.6724,6.1305" id="Fill-11" fill="#FFFFFF"></path>
                        <g id="Group-15" transform="translate(0.000000, 0.044875)">
                            <mask id="mask-2" fill="white">
                                <use xlink:href="#path-1"></use>
                            </mask>
                            <g id="Clip-14"></g>
                            <path d="M18.745275,6.4411 C19.044775,4.5316 18.743275,3.2326 17.710525,2.0556 C16.573525,0.7601 14.519525,0.2051 11.891275,0.2051 L4.262775,0.2051 C3.725775,0.2051 3.268525,0.59585 3.184775,1.1266 L0.008025,21.2696 C-0.054475,21.6671 0.252775,22.0266 0.655025,22.0266 L5.364525,22.0266 L5.039525,24.08785 C4.984775,24.4356 5.253275,24.74985 5.605275,24.74985 L9.574775,24.74985 C10.044775,24.74985 10.444775,24.4081 10.518025,23.9441 L10.557025,23.7421 L11.304775,19.0001 L11.353025,18.7381 C11.426275,18.2741 11.826275,17.9321 12.296025,17.9321 L12.889775,17.9321 C16.735525,17.9321 19.746775,16.36985 20.626525,11.85135 C20.994275,9.9631 20.804025,8.38735 19.832025,7.27935 C19.537775,6.9441 19.172025,6.6671 18.745275,6.4411" id="Fill-13" fill="#FFFFFF" opacity="0.733096168" mask="url(#mask-2)"></path>
                        </g>
                        <g id="Group-18" transform="translate(0.000000, 0.044875)">
                            <mask id="mask-4" fill="white">
                                <use xlink:href="#path-3"></use>
                            </mask>
                            <g id="Clip-17"></g>
                            <path d="M18.745275,6.4411 C19.044775,4.5316 18.743275,3.2326 17.710525,2.0556 C16.573525,0.7601 14.519525,0.2051 11.891275,0.2051 L4.262775,0.2051 C3.725775,0.2051 3.268525,0.59585 3.184775,1.1266 L0.008025,21.2696 C-0.054475,21.6671 0.252775,22.0266 0.655025,22.0266 L5.364525,22.0266 L6.547525,14.52485 L6.510775,14.7601 C6.594525,14.2296 7.047775,13.83885 7.585025,13.83885 L9.823275,13.83885 C14.219275,13.83885 17.661525,12.05285 18.667275,6.88785 C18.697025,6.73485 18.722525,6.58685 18.745275,6.4411" id="Fill-16" fill-opacity="0.483555507" fill="#FFFFFF" mask="url(#mask-4)"></path>
                        </g>
                        <g id="Group-21" transform="translate(0.000000, 0.044875)">
                            <mask id="mask-6" fill="white">
                                <use xlink:href="#path-5"></use>
                            </mask>
                            <g id="Clip-20"></g>
                            <path d="M7.8184,6.46635 C7.86865,6.14735 8.07365,5.88585 8.3494,5.75385 C8.47465,5.69385 8.61465,5.66035 8.7614,5.66035 L14.74115,5.66035 C15.44965,5.66035 16.11015,5.7066 16.71415,5.8041 C16.88665,5.8316 17.05465,5.8636 17.21765,5.89985 C17.3809,5.9361 17.53915,5.9766 17.6924,6.02135 C17.76915,6.04385 17.8444,6.06735 17.91865,6.09185 C18.21515,6.19035 18.49115,6.30635 18.7454,6.4411 C19.04465,4.5316 18.74315,3.23235 17.7104,2.0556 C16.57365,0.7601 14.5194,0.2051 11.8914,0.2051 L4.2629,0.2051 C3.72565,0.2051 3.2684,0.59585 3.18465,1.1266 L0.00815,21.2696 C-0.0546,21.6671 0.25265,22.0266 0.6549,22.0266 L5.36465,22.0266 L6.54765,14.52485 L7.8184,6.46635 Z" id="Fill-19" fill="#FFFFFF" mask="url(#mask-6)"></path>
                        </g>
                    </g>
                </g>
            </g>
        </g>
    </g>
</svg>