<?xml version="1.0" encoding="UTF-8"?>
<svg width="27px" height="27px" viewBox="0 0 27 27" version="1.1" xmlns="http://www.w3.org/2000/svg" xmlns:xlink="http://www.w3.org/1999/xlink">
    <title>F5A7E7C3-7CE1-460C-B97A-F38843DEC357@1,5x</title>
    <g id="Page-2" stroke="none" stroke-width="1" fill="none" fill-rule="evenodd">
        <g id="1" transform="translate(-374.000000, -58.000000)" fill="#000000" fill-rule="nonzero">
            <g id="qr-code" transform="translate(374.000000, 58.000000)">
                <path d="M0,5.0625 L0,1.0546875 C0,0.472137451 0.472137451,0 1.0546875,0 L5.0625,0 C5.64505005,0 6.1171875,0.472137451 6.1171875,1.0546875 C6.1171875,1.63723755 5.64505005,2.109375 5.0625,2.109375 L2.109375,2.109375 L2.109375,5.0625 C2.109375,5.64505005 1.63723755,6.1171875 1.0546875,6.1171875 C0.472137451,6.1171875 0,5.64505005 0,5.0625 Z M25.9453125,0 L21.9375,0 C21.35495,0 20.8828125,0.472137451 20.8828125,1.0546875 C20.8828125,1.63723755 21.35495,2.109375 21.9375,2.109375 L24.890625,2.109375 L24.890625,5.0625 C24.890625,5.64505005 25.3627625,6.1171875 25.9453125,6.1171875 C26.5278625,6.1171875 27,5.64505005 27,5.0625 L27,1.0546875 C27,0.472137451 26.5278625,0 25.9453125,0 Z M5.0625,24.890625 L2.109375,24.890625 L2.109375,21.9375 C2.109375,21.35495 1.63723755,20.8828125 1.0546875,20.8828125 C0.472137451,20.8828125 0,21.35495 0,21.9375 L0,25.9453125 C0,26.5278625 0.472137451,27 1.0546875,27 L5.0625,27 C5.64505005,27 6.1171875,26.5278625 6.1171875,25.9453125 C6.1171875,25.3627625 5.64505005,24.890625 5.0625,24.890625 Z M25.9453125,20.8828125 C25.3627625,20.8828125 24.890625,21.35495 24.890625,21.9375 L24.890625,24.890625 L21.9375,24.890625 C21.35495,24.890625 20.8828125,25.3627625 20.8828125,25.9453125 C20.8828125,26.5278625 21.35495,27 21.9375,27 L25.9453125,27 C26.5278625,27 27,26.5278625 27,25.9453125 L27,21.9375 C27,21.35495 26.5278625,20.8828125 25.9453125,20.8828125 Z M12.5771484,5.19433594 L12.5771484,11.5224609 C12.5771484,12.105011 12.105011,12.5771484 11.5224609,12.5771484 L5.19433594,12.5771484 C4.61178589,12.5771484 4.13964844,12.105011 4.13964844,11.5224609 L4.13964844,5.19433594 C4.13964844,4.61178589 4.61178589,4.13964844 5.19433594,4.13964844 L11.5224609,4.13964844 C12.105011,4.13964844 12.5771484,4.61178589 12.5771484,5.19433594 Z M10.4677734,6.24902344 L6.24902344,6.24902344 L6.24902344,10.4677734 L10.4677734,10.4677734 L10.4677734,6.24902344 Z M22.3330078,12.5771484 L16.0048828,12.5771484 C15.4223328,12.5771484 14.9501953,12.105011 14.9501953,11.5224609 L14.9501953,5.19433594 C14.9501953,4.61178589 15.4223328,4.13964844 16.0048828,4.13964844 L22.3330078,4.13964844 C22.9155579,4.13964844 23.3876953,4.61178589 23.3876953,5.19433594 L23.3876953,11.5224609 C23.3876953,12.105011 22.9155579,12.5771484 22.3330078,12.5771484 Z M21.2783203,6.24902344 L17.0595703,6.24902344 L17.0595703,10.4677734 L21.2783203,10.4677734 L21.2783203,6.24902344 Z M12.5771484,16.0048828 L12.5771484,22.3330078 C12.5771484,22.9155579 12.105011,23.3876953 11.5224609,23.3876953 L5.19433594,23.3876953 C4.61178589,23.3876953 4.13964844,22.9155579 4.13964844,22.3330078 L4.13964844,16.0048828 C4.13964844,15.4223328 4.61178589,14.9501953 5.19433594,14.9501953 L11.5224609,14.9501953 C12.105011,14.9501953 12.5771484,15.4223328 12.5771484,16.0048828 Z M10.4677734,17.0595703 L6.24902344,17.0595703 L6.24902344,21.2783203 L10.4677734,21.2783203 L10.4677734,17.0595703 Z M20.9750977,22.0297852 L17.362793,22.0297852 C16.7802429,22.0297852 16.3081055,21.5576477 16.3081055,20.9750977 L16.3081055,17.362793 C16.3081055,16.7802429 16.7802429,16.3081055 17.362793,16.3081055 L20.9750977,16.3081055 C21.5576477,16.3081055 22.0297852,16.7802429 22.0297852,17.362793 L22.0297852,20.9750977 C22.0297852,21.5576477 21.5576477,22.0297852 20.9750977,22.0297852 Z M19.9204102,18.4174805 L18.4174805,18.4174805 L18.4174805,19.9204102 L19.9204102,19.9204102 L19.9204102,18.4174805 Z" id="Shape"></path>
            </g>
        </g>
    </g>
</svg>