<?xml version="1.0" encoding="UTF-8"?>
<svg width="71px" height="24px" viewBox="0 0 71 24" version="1.1" xmlns="http://www.w3.org/2000/svg" xmlns:xlink="http://www.w3.org/1999/xlink">
    <title>2FE4DAF2-A094-4637-AB41-64E4A3ADDA74@1,5x</title>
    <g id="Page-2" stroke="none" stroke-width="1" fill="none" fill-rule="evenodd">
        <g id="4" transform="translate(-63.000000, -298.000000)">
            <g id="Group-3" transform="translate(39.000000, 165.000000)">
                <g id="Group-3-Copy" transform="translate(6.000000, 104.000000)">
                    <g id="visa-logo" transform="translate(18.000000, 29.500000)">
                        <polygon id="Fill-1" fill="#FFFFFF" points="28.32408 0.76288 24.76568 21.64448 30.45488 21.64448 34.01568 0.76288"></polygon>
                        <g id="Group-10" transform="translate(0.000000, 0.353920)">
                            <path d="M51.09764,0.92304 C49.97004,0.49984 48.20324,0.04624 45.99644,0.04624 C40.37284,0.04624 36.41084,2.87824 36.37724,6.93704 C36.34564,9.93744 39.20564,11.61144 41.36444,12.61024 C43.57964,13.63344 44.32444,14.28624 44.31404,15.20024 C44.30004,16.59984 42.54484,17.23944 40.90884,17.23944 C38.63084,17.23944 37.42084,16.92304 35.55164,16.14344 L34.81804,15.81144 L34.01924,20.48584 C35.34884,21.06864 37.80684,21.57384 40.35924,21.59984 C46.34204,21.59984 50.22604,18.80024 50.27044,14.46584 C50.29164,12.09064 48.77524,10.28264 45.49164,8.79264 C43.50244,7.82664 42.28404,7.18184 42.29684,6.20384 C42.29684,5.33584 43.32804,4.40784 45.55604,4.40784 C47.41764,4.37904 48.76564,4.78464 49.81604,5.20784 L50.32604,5.44864 L51.09764,0.92304" id="Fill-2" fill="#FFFFFF"></path>
                            <path d="M58.6742,13.88788 C59.145,12.68468 60.9418,8.05068 60.9418,8.05068 C60.9082,8.10628 61.409,6.84188 61.6966,6.05788 L62.0814,7.85828 C62.0814,7.85828 63.171,12.84268 63.399,13.88788 L58.6742,13.88788 Z M65.6926,0.42908 L61.2946,0.42908 C59.9322,0.42908 58.9126,0.80068 58.3142,2.16068 L49.8614,21.29668 L55.8378,21.29668 C55.8378,21.29668 56.8154,18.72388 57.0362,18.15908 C57.6894,18.15908 63.4954,18.16788 64.3254,18.16788 C64.4958,18.89868 65.0178,21.29668 65.0178,21.29668 L70.299,21.29668 L65.6926,0.42908 L65.6926,0.42908 Z" id="Fill-4" fill="#FFFFFF"></path>
                            <path d="M19.992,0.4242 L14.4196,14.6638 L13.826,11.7698 C12.7888,8.4338 9.5568,4.8198 5.9432,3.0106 L11.0384,21.2722 L17.0604,21.2654 L26.0208,0.4242 L19.992,0.4242" id="Fill-6" fill="#FFFFFF"></path>
                            <path d="M9.2504,0.41132 L0.0728,0.41132 L0,0.84572 C7.1404,2.57412 11.8648,6.75132 13.826,11.76972 L11.8304,2.17412 C11.4856,0.85212 10.4864,0.45732 9.2504,0.41132" id="Fill-8" fill="#F9A51A"></path>
                        </g>
                    </g>
                </g>
            </g>
        </g>
    </g>
</svg>